{
    "asset" : {
        "generator" : "Khronos glTF Blender I/O v1.8.19",
        "version" : "2.0"
    },
    "scene" : 0,
    "scenes" : [
        {
            "name" : "Scene",
            "nodes" : [
                0
            ]
        }
    ],
    "nodes" : [
        {
            "mesh" : 0,
            "name" : "\u8f7f\u8f6628"
        }
    ],
    "materials" : [
        {
            "doubleSided" : true,
            "name" : "Mat3d66-1537423-3-9368",
            "pbrMetallicRoughness" : {
                "baseColorTexture" : {
                    "index" : 0
                },
                "metallicFactor" : 0,
                "roughnessFactor" : 0.8671875
            }
        }
    ],
    "meshes" : [
        {
            "name" : "Obj3d66-1537423-50-404",
            "primitives" : [
                {
                    "attributes" : {
                        "POSITION" : 0,
                        "NORMAL" : 1,
                        "TEXCOORD_0" : 2
                    },
                    "indices" : 3,
                    "material" : 0
                }
            ]
        }
    ],
    "textures" : [
        {
            "sampler" : 0,
            "source" : 0
        }
    ],
    "images" : [
        {
            "bufferView" : 4,
            "mimeType" : "image/jpeg",
            "name" : "Image_0"
        }
    ],
    "accessors" : [
        {
            "bufferView" : 0,
            "componentType" : 5126,
            "count" : 534,
            "max" : [
                1.0256330966949463,
                1.4426162242889404,
                2.3778982162475586
            ],
            "min" : [
                -1.0256333351135254,
                -2.9802322387695312e-08,
                -2.3778982162475586
            ],
            "type" : "VEC3"
        },
        {
            "bufferView" : 1,
            "componentType" : 5126,
            "count" : 534,
            "type" : "VEC3"
        },
        {
            "bufferView" : 2,
            "componentType" : 5126,
            "count" : 534,
            "type" : "VEC2"
        },
        {
            "bufferView" : 3,
            "componentType" : 5123,
            "count" : 1716,
            "type" : "SCALAR"
        }
    ],
    "bufferViews" : [
        {
            "buffer" : 0,
            "byteLength" : 6408,
            "byteOffset" : 0
        },
        {
            "buffer" : 0,
            "byteLength" : 6408,
            "byteOffset" : 6408
        },
        {
            "buffer" : 0,
            "byteLength" : 4272,
            "byteOffset" : 12816
        },
        {
            "buffer" : 0,
            "byteLength" : 3432,
            "byteOffset" : 17088
        },
        {
            "buffer" : 0,
            "byteLength" : 59190,
            "byteOffset" : 20520
        }
    ],
    "samplers" : [
        {
            "magFilter" : 9729,
            "minFilter" : 9987
        }
    ],
    "buffers" : [
        {
            "byteLength" : 79712,
            "uri" : "data:application/octet-stream;base64,"
        }
    ]
}
